<?xml version="1.0" encoding="UTF-8"?>
<svg width="22px" height="22px" viewBox="0 0 22 22" version="1.1" xmlns="http://www.w3.org/2000/svg" xmlns:xlink="http://www.w3.org/1999/xlink">
    <!-- Generator: Sketch 43.2 (39069) - http://www.bohemiancoding.com/sketch -->
    <title>noun_769002_cc</title>
    <desc>Created with Sketch.</desc>
    <defs></defs>
    <g id="desktop" stroke="none" stroke-width="1" fill="none" fill-rule="evenodd">
        <g id="homepage" transform="translate(-1142.000000, -1441.000000)" fill="#1F1E1E">
            <g id="section-1" transform="translate(0.000000, 1018.000000)">
                <g id="pad-events" transform="translate(575.000000, 162.000000)">
                    <g id="noun_769002_cc" transform="translate(567.000000, 261.000000)">
                        <g id="Group">
                            <path d="M14.5645288,0.790599125 C13.3420949,0.280911093 12.0064069,0 10.6071429,0 C5.19519648,0 0.73038507,4.20323957 0.0813181758,9.6334718 C0.0275003286,10.0818255 0,10.5375394 0,11.0006133 C0,17.0766958 4.74927717,22 10.6071429,22 C16.4658956,22 21.2142857,17.0763891 21.2142857,11.0006133 C21.2142857,6.37570047 18.4636615,2.41718476 14.5645288,0.790599125 Z M16.0703881,7.09044899 C15.8500624,7.42784443 15.4076313,7.51643842 15.0819479,7.28793976 C14.805028,7.09377126 14.5092434,6.93134895 14.2017129,6.80620994 C13.6674497,6.5876781 13.10222,6.47693562 12.520617,6.47693562 C10.8081986,6.47693562 9.31859749,7.45183864 8.56365269,8.88004756 L12.9189118,8.88004756 C13.3118675,8.88004756 13.6307881,9.21079845 13.6307881,9.6183308 C13.6307881,10.0258631 13.3118675,10.356614 12.9189118,10.356614 L8.08847527,10.356614 C8.05822053,10.5681322 8.03722018,10.7829726 8.03722018,11.002981 C8.03722018,11.2229894 8.05822053,11.4370916 8.08847527,11.6486097 L12.9189118,11.6486097 C13.3118675,11.6486097 13.6307881,11.9793606 13.6307881,12.3868929 C13.6307881,12.7944253 13.3118675,13.1251762 12.9189118,13.1251762 L8.56329675,13.1251762 C9.31824156,14.5533851 10.8081986,15.5286573 12.520617,15.5286573 C13.2542055,15.5286573 13.9810312,15.3463013 14.6227877,15.0011539 C14.972319,14.8151065 15.4015804,14.9553803 15.5823969,15.3171391 C15.7632135,15.6788979 15.6265333,16.124821 15.2777139,16.3123449 C14.4341405,16.7656508 13.4805822,17.0048546 12.520617,17.0048546 C9.99950716,17.0048546 7.84821702,15.3887526 7.00179612,13.124807 L5.71187629,13.124807 C5.31892058,13.124807 5,12.7940561 5,12.3865238 C5,11.9789915 5.31892058,11.6482406 5.71187629,11.6482406 L6.64906142,11.6482406 C6.62663732,11.4359841 6.6134676,11.2207746 6.6134676,11.0026119 C6.6134676,10.78408 6.62663732,10.5688705 6.64906142,10.3562449 L5.71187629,10.3562449 C5.31892058,10.3562449 5,10.025494 5,9.61796166 C5,9.21042931 5.31892058,8.87967842 5.71187629,8.87967842 L7.00215206,8.87967842 C7.84857296,6.61610201 9.99950716,5 12.520617,5 C13.2816128,5 14.022676,5.1454418 14.7231623,5.43189569 C15.1271521,5.59616372 15.5161924,5.80915843 15.8796053,6.06460443 C16.2052887,6.29384138 16.2907138,6.75268441 16.0703881,7.09044899 Z" id="Shape"></path>
                        </g>
                    </g>
                </g>
            </g>
        </g>
    </g>
</svg>