<?xml version="1.0" encoding="UTF-8"?>
<svg width="16px" height="22px" viewBox="0 0 16 22" version="1.1" xmlns="http://www.w3.org/2000/svg" xmlns:xlink="http://www.w3.org/1999/xlink">
    <!-- Generator: Sketch 43.2 (39069) - http://www.bohemiancoding.com/sketch -->
    <title>noun_21803_cc</title>
    <desc>Created with Sketch.</desc>
    <defs></defs>
    <g id="desktop" stroke="none" stroke-width="1" fill="none" fill-rule="evenodd">
        <g id="homepage" transform="translate(-978.000000, -1440.000000)" fill="#1F1E1E">
            <g id="section-1" transform="translate(0.000000, 1018.000000)">
                <g id="pad-events" transform="translate(575.000000, 162.000000)">
                    <g id="noun_21803_cc" transform="translate(403.000000, 260.000000)">
                        <g id="Group">
                            <path d="M7.98802629,0.418753337 C3.41244675,0.418753337 0.00164630741,4.48670934 0.00164630741,9.18618929 C0.00164630741,15.1454473 7.98802629,22 7.98802629,22 C7.98802629,22 15.9746216,15.1454473 15.9746216,9.18618929 C15.9746216,4.54992713 12.5636058,0.418753337 7.98802629,0.418753337 Z M7.98802629,12.5583136 C5.96656402,12.5583136 4.32726124,10.8972116 4.32726124,8.84895506 C4.32726124,6.80048057 5.96656402,5.13959655 7.98802629,5.13959655 C10.0099192,5.13959655 11.6492219,6.80026258 11.6492219,8.84895506 C11.6492219,10.8969936 10.0099192,12.5583136 7.98802629,12.5583136 Z" id="Shape"></path>
                        </g>
                    </g>
                </g>
            </g>
        </g>
    </g>
</svg>